<?xml version="1.0" encoding="UTF-8"?>
<svg id="Layer_2" xmlns="http://www.w3.org/2000/svg" xmlns:xlink="http://www.w3.org/1999/xlink" viewBox="0 0 814.93 174.69">
  <defs>
    <style>
      .cls-1 {
        fill: #fff;
      }

      .cls-2 {
        fill: #01c9f0;
      }

      .cls-3 {
        fill: url(#linear-gradient);
      }
    </style>
    <linearGradient id="linear-gradient" x1="141.29" y1="181.72" x2="138.41" y2="37" gradientUnits="userSpaceOnUse">
      <stop offset="0" stop-color="#01c9f0"/>
      <stop offset="1" stop-color="#ebf5e0"/>
    </linearGradient>
  </defs>
  <g id="Camada_1">
    <g>
      <g>
        <path class="cls-1" d="M311.92,19.33h-7.12c-1.18,0-2.22.75-2.59,1.87l-19.42,58.6h9.94l12.88-43.2c.78-2.6,4.46-2.6,5.23,0l12.81,43.19h10.54l-19.67-58.61c-.37-1.11-1.41-1.86-2.59-1.86Z"/>
        <path class="cls-1" d="M359.79,48.29v7.53h13.11v15.59c-1.66.52-3.5.9-5.53,1.16s-4.27.38-6.72.38c-3.6,0-6.65-.75-9.17-2.27-2.51-1.51-4.38-3.91-5.61-7.19-1.22-3.28-1.84-7.46-1.84-12.55,0-5.48.66-9.98,1.97-13.49,1.32-3.51,3.33-6.11,6.04-7.79,2.71-1.69,6.04-2.53,9.98-2.53,2.51,0,5.08.19,7.71.56,2.62.37,5.28.9,7.96,1.58l1.72-7.71c-1.32-.45-2.69-.84-4.12-1.15-1.42-.31-2.89-.59-4.41-.82-1.51-.22-3.05-.38-4.62-.47-1.57-.08-3.24-.13-5.01-.13-5.88,0-10.82,1.16-14.82,3.47-4,2.32-6.99,5.83-8.99,10.54-2,4.71-3,10.63-3,17.77,0,6.68.93,12.24,2.78,16.66,1.86,4.43,4.66,7.74,8.4,9.94,3.74,2.19,8.4,3.29,14,3.29,4.28,0,8.28-.31,11.99-.94,3.71-.63,7.02-1.57,9.94-2.83v-28.6h-21.76Z"/>
        <path class="cls-1" d="M399.62,71.32v-18.33h27.75v-8.4h-27.75v-16.18h29.89v-8.57h-39.66v59.96h41.12v-8.48h-31.35Z"/>
        <path class="cls-1" d="M474.99,19.84v44.97l-28.78-45.14h-9.08v60.13h8.65v-44.54l28.78,44.71h9.08V19.84h-8.65Z"/>
        <path class="cls-1" d="M488.52,19.84v8.48h18.24v51.48h9.51V28.32h18.24v-8.48h-45.99Z"/>
        <path class="cls-1" d="M549.16,71.32v-18.33h27.75v-8.4h-27.75v-16.18h29.89v-8.57h-39.65v59.96h41.11v-8.48h-31.35Z"/>
        <path class="cls-1" d="M628.04,57.83c-.68-1.74-1.77-3.29-3.25-4.63-1.49-1.34-3.37-2.58-5.66-3.72-2.28-1.14-5.02-2.2-8.22-3.17-2.97-.86-5.51-1.7-7.62-2.53-2.11-.83-3.83-1.7-5.14-2.61-1.31-.91-2.26-1.86-2.83-2.83s-.85-2.11-.85-3.42c0-2.63,1.2-4.66,3.59-6.08,2.4-1.43,5.6-2.15,9.6-2.15,1.37,0,2.79.06,4.28.17,1.48.12,2.97.29,4.45.52,1.49.23,2.92.5,4.29.81,1.37.32,2.59.67,3.68,1.07l1.88-7.53c-1.42-.46-3.15-.9-5.18-1.33s-4.2-.77-6.51-1.03-4.58-.39-6.81-.39c-3.82,0-7.19.42-10.1,1.25-2.92.83-5.33,1.98-7.24,3.47-1.91,1.48-3.34,3.22-4.28,5.22-.95,2-1.42,4.2-1.42,6.6,0,2.17.32,4.11.95,5.82.62,1.71,1.61,3.27,2.95,4.67s3.05,2.67,5.14,3.81c2.08,1.14,4.55,2.23,7.41,3.25,3.14.98,5.85,1.89,8.13,2.74,2.29.86,4.16,1.7,5.61,2.53,1.46.83,2.56,1.76,3.3,2.78.74,1.03,1.12,2.18,1.12,3.43,0,1.83-.53,3.37-1.59,4.63-1.06,1.25-2.63,2.21-4.71,2.87-2.08.65-4.67.98-7.75.98-1.54,0-3.21-.07-5.01-.21-1.8-.15-3.6-.39-5.4-.73-1.8-.34-3.54-.73-5.22-1.16-1.69-.43-3.24-.9-4.67-1.41l-2.06,7.54c1.43.51,3.04,1,4.84,1.45,1.8.46,3.7.85,5.7,1.16,2,.31,3.95.55,5.87.73,1.91.17,3.75.25,5.52.25,2.63,0,5.06-.17,7.29-.52,2.14-.32,4.09-.81,5.86-1.45,2.09-.76,3.9-1.71,5.41-2.87h.01c1.11-.84,2.05-1.77,2.84-2.82,1.89-2.49,2.83-5.53,2.83-9.12,0-2.29-.34-4.3-1.03-6.04Z"/>
      </g>
      <g>
        <path class="cls-3" d="M274.64,139.88l-67.36-98.14-.43-.59C181.15,6.95,159.99,0,140.46,0s-40.68,6.95-66.39,41.16l-.43.59L6.28,139.88c-.23.34.11.78.49.63,13.17-5.1,31.05-12.15,42.55-17.2h0s.01-.01.01-.01c2.67-1.18,5.01-2.24,6.85-3.16,1.23-.61,2.48-1.15,3.73-1.71,2.17-.98,4.05-2.51,5.4-4.47l36.1-52.6c8.68-11.5,17.48-18.2,24.79-22.1,8.91-4.76,19.6-4.76,28.51,0,7.31,3.91,16.11,10.61,24.79,22.1l36.1,52.6c1.38,2.02,3.33,3.58,5.57,4.55,1.3.56,2.59,1.16,3.86,1.78,1.79.88,4.02,1.89,6.55,3.01h.01c11.5,5.06,29.38,12.11,42.55,17.21.39.15.73-.29.49-.63Z"/>
        <path class="cls-2" d="M279.76,149.96c-9.01-3.53-40.27-15.84-54.64-22.14h0s-.01-.01-.01-.01c-2.53-1.12-4.76-2.13-6.55-3.01-15.99-7.82-34.01-11.13-51.08-6.06l-19.57,5.82c-2.44.73-4.94,1.14-7.45,1.25-2.51-.12-5.01-.53-7.45-1.25l-19.57-5.82c-17.07-5.07-35.09-1.76-51.08,6.06-1.79.88-4.02,1.89-6.55,3.01h-.01c-14.36,6.31-45.63,18.62-54.64,22.15-1.2.47-1.55,1.99-.69,2.95l14.99,16.69c4.27,4.75,11.03,6.37,16.98,4.06,15.96-6.2,37.42-14.75,46.93-19.41,7.63-3.75,16.24-5.34,24.39-2.92l19.57,5.82c5.53,1.64,11.21,2.53,16.9,2.67v.02c.08,0,.16,0,.24,0,.08,0,.16,0,.24,0v-.02c5.69-.14,11.36-1.03,16.9-2.67l19.57-5.82c8.15-2.42,16.76-.83,24.39,2.92,9.51,4.66,30.97,13.21,46.92,19.41,5.95,2.31,12.71.7,16.98-4.06l14.99-16.69c.86-.96.51-2.48-.69-2.95Z"/>
      </g>
      <g>
        <path class="cls-1" d="M375.38,92.94l-16.02,26.94c-.81,1.37-2.79,1.36-3.6,0l-15.93-26.93h-9.85v59.95h8.74v-45.31l15.66,26.22c.38.63,1.06,1.02,1.8,1.02h2.17c.73,0,1.41-.38,1.79-1.01l15.84-26.31v45.39h8.73v-59.95h-9.33Z"/>
        <path class="cls-1" d="M394.31,92.94v59.95h9.59v-59.95h-9.59Z"/>
        <path class="cls-1" d="M423,144.57v-51.64h-9.59v59.95h37.77v-8.31h-28.18Z"/>
        <path class="cls-1" d="M456.57,92.94v59.95h9.6v-59.95h-9.6Z"/>
        <path class="cls-1" d="M524.92,110.45c-.86-3.45-2.05-6.35-3.6-8.69-1.54-2.34-3.39-4.23-5.56-5.65-2.17-1.43-4.59-2.46-7.24-3.09-2.66-.62-5.58-.94-8.78-.94s-6.12.32-8.78.94c-2.65.63-5.07,1.66-7.24,3.09-2.17,1.42-4.02,3.32-5.56,5.69-1.55,2.37-2.72,5.3-3.52,8.78s-1.19,7.6-1.19,12.33.41,8.77,1.24,12.25c.82,3.49,2.01,6.41,3.55,8.78,1.54,2.37,3.43,4.28,5.66,5.74,2.22,1.46,4.65,2.5,7.27,3.13,2.63.62,5.51.94,8.66.94s6.03-.32,8.69-.94c2.65-.63,5.07-1.64,7.24-3.04,2.17-1.4,4.02-3.3,5.56-5.7,1.55-2.4,2.74-5.35,3.6-8.86.86-3.52,1.29-7.7,1.29-12.55s-.43-8.75-1.29-12.21ZM515.54,132.42c-.54,2.69-1.33,4.9-2.35,6.64-1.03,1.74-2.24,3.13-3.64,4.15-1.4,1.03-2.94,1.77-4.63,2.23-1.68.46-3.44.69-5.27.69s-3.46-.23-5.09-.69c-1.63-.46-3.14-1.2-4.54-2.23-1.4-1.02-2.61-2.42-3.64-4.19s-1.83-3.97-2.4-6.6c-.57-2.62-.86-5.76-.86-9.42s.29-6.98.86-9.63c.57-2.66,1.37-4.89,2.4-6.69,1.03-1.79,2.24-3.19,3.64-4.19,1.4-1,2.91-1.73,4.54-2.19,1.63-.45,3.32-.68,5.09-.68s3.59.23,5.27.68c1.69.46,3.23,1.2,4.63,2.23,1.4,1.03,2.59,2.41,3.59,4.15,1,1.75,1.79,3.96,2.36,6.64.57,2.69.86,5.88.86,9.59s-.28,6.83-.82,9.51Z"/>
        <path class="cls-1" d="M571.34,92.94v44.96l-28.78-45.13h-9.07v60.12h8.65v-44.54l28.77,44.71h9.08v-60.12h-8.65Z"/>
        <path class="cls-1" d="M614.42,92.42h-7.96c-.92,0-1.75.59-2.04,1.47l-19.55,59h9.94l13.44-45.08c.61-2.04,3.51-2.04,4.11,0l13.37,45.07h10.54l-19.81-59.01c-.29-.87-1.11-1.46-2.03-1.46Z"/>
        <path class="cls-1" d="M691.16,144.32c-.17,0-.4.01-.68.04-.29.03-.49.04-.6.04-1.03,0-2.13-.32-3.3-.98-1.17-.66-2.44-1.64-3.81-2.96-1.37-1.31-2.87-2.95-4.5-4.92-1.62-1.97-3.41-4.38-5.35-7.24,2.86-.8,5.27-1.97,7.24-3.51,1.97-1.54,3.48-3.53,4.54-5.95,1.05-2.43,1.58-5.41,1.58-8.95,0-3.2-.46-5.96-1.37-8.27-.91-2.31-2.35-4.17-4.32-5.57-1.97-1.39-4.56-2.41-7.75-3.04-3.2-.62-7.03-.94-11.48-.94-1.94,0-3.96.03-6.04.09-2.08.05-4.28.14-6.6.25-2.31.12-4.89.26-7.75.43v60.04h9.77v-22.18c1.37.06,2.82.08,4.37.08h4.19c.57,0,1.29-.01,2.14-.04.86-.03,1.52-.07,1.97-.13,2.12,3.32,4.09,6.24,5.91,8.78,1.83,2.54,3.59,4.71,5.27,6.51s3.31,3.29,4.88,4.46c1.57,1.17,3.13,2.02,4.67,2.57,1.54.54,3.08.81,4.63.81.57,0,1.05-.03,1.45-.09.4-.05.74-.11,1.03-.17l-.09-9.16ZM667.91,122.19c-1.91.43-4.18.64-6.81.64h-2.4c-.8,0-1.64-.01-2.52-.04-.89-.03-1.76-.06-2.62-.09-.85-.03-1.79-.07-2.82-.13v-22.44c1.2-.11,2.24-.18,3.12-.21.89-.03,1.7-.06,2.44-.09.75-.03,1.53-.04,2.36-.04h2.87c3.77,0,6.74.39,8.91,1.16,2.17.77,3.69,1.97,4.58,3.59.88,1.63,1.33,3.87,1.33,6.73,0,2.17-.32,3.98-.95,5.44-.62,1.45-1.55,2.62-2.78,3.51-1.23.88-2.8,1.54-4.71,1.97Z"/>
        <path class="cls-1" d="M696.3,92.94v59.95h9.6v-59.95h-9.6Z"/>
        <path class="cls-1" d="M787.02,115.97v10.2c3.14.97,5.84,1.88,8.12,2.74.52.19,1.01.39,1.48.58v-10.13c-2.91-.84-5.4-1.67-7.47-2.48-.76-.3-1.48-.6-2.13-.91ZM787.02,87.58v13.01c1.86-.54,4.03-.81,6.5-.81,1,0,2.03.03,3.1.1v-12.3h-9.6ZM791.12,146.13c-1.28,0-2.65-.05-4.1-.15v12.2h9.6v-12.5c-1.61.3-3.45.45-5.5.45Z"/>
        <path class="cls-1" d="M764.65,110.45c-.86-3.45-2.05-6.35-3.6-8.69-1.54-2.34-3.39-4.23-5.56-5.65-2.17-1.43-4.59-2.46-7.24-3.09-2.66-.62-5.58-.94-8.78-.94s-6.12.32-8.78.94c-2.65.63-5.07,1.66-7.24,3.09-2.17,1.42-4.02,3.32-5.56,5.69-1.55,2.37-2.72,5.3-3.52,8.78s-1.19,7.6-1.19,12.33.41,8.77,1.24,12.25c.82,3.49,2.01,6.41,3.55,8.78,1.54,2.37,3.43,4.28,5.66,5.74,2.22,1.46,4.65,2.5,7.27,3.13,2.63.62,5.51.94,8.66.94s6.03-.32,8.69-.94c2.65-.63,5.07-1.64,7.24-3.04,2.17-1.4,4.02-3.3,5.56-5.7,1.55-2.4,2.74-5.35,3.6-8.86.86-3.52,1.29-7.7,1.29-12.55s-.43-8.75-1.29-12.21ZM755.27,132.42c-.54,2.69-1.33,4.9-2.35,6.64-1.03,1.74-2.24,3.13-3.64,4.15-1.4,1.03-2.94,1.77-4.63,2.23-1.68.46-3.44.69-5.27.69s-3.46-.23-5.09-.69c-1.63-.46-3.14-1.2-4.54-2.23-1.4-1.02-2.61-2.42-3.64-4.19s-1.83-3.97-2.4-6.6c-.57-2.62-.86-5.76-.86-9.42s.29-6.98.86-9.63c.57-2.66,1.37-4.89,2.4-6.69,1.03-1.79,2.24-3.19,3.64-4.19,1.4-1,2.91-1.73,4.54-2.19,1.63-.45,3.32-.68,5.09-.68s3.59.23,5.27.68c1.69.46,3.23,1.2,4.63,2.23,1.4,1.03,2.59,2.41,3.59,4.15,1,1.75,1.79,3.96,2.36,6.64.57,2.69.86,5.88.86,9.59s-.28,6.83-.82,9.51Z"/>
        <path class="cls-1" d="M813.9,130.92c-.69-1.74-1.77-3.28-3.25-4.62-1.49-1.34-3.37-2.58-5.66-3.73-2.28-1.14-5.02-2.2-8.22-3.17-.05-.01-.1-.03-.15-.04-2.91-.84-5.4-1.67-7.47-2.48-.76-.3-1.48-.6-2.13-.91-1.17-.55-2.17-1.12-3.01-1.71-1.32-.91-2.26-1.85-2.83-2.82-.57-.97-.86-2.11-.86-3.43,0-2.62,1.2-4.65,3.6-6.08.92-.55,1.95-.99,3.1-1.33,1.86-.54,4.03-.81,6.5-.81,1,0,2.03.03,3.1.1.39.01.78.04,1.18.07,1.48.12,2.97.29,4.45.51,1.49.23,2.91.51,4.28.82,1.37.31,2.6.67,3.69,1.07l1.88-7.54c-1.43-.45-3.15-.9-5.18-1.33-2.03-.42-4.2-.77-6.51-1.02-1.27-.14-2.54-.25-3.79-.31-1.01-.05-2.02-.08-3.02-.08-2.37,0-4.56.16-6.58.48-1.24.19-2.42.45-3.53.76-2.91.83-5.32,1.99-7.23,3.47-1.92,1.49-3.34,3.23-4.29,5.23-.94,2-1.41,4.19-1.41,6.59,0,2.17.31,4.11.94,5.83.63,1.71,1.62,3.26,2.96,4.66,1.34,1.4,3.05,2.67,5.14,3.81,2.08,1.15,4.55,2.23,7.41,3.26h.01c3.14.97,5.84,1.88,8.12,2.74.52.19,1.01.39,1.48.58,1.63.66,3.01,1.31,4.13,1.95,1.46.83,2.56,1.75,3.3,2.78.74,1.03,1.11,2.17,1.11,3.43,0,1.82-.53,3.37-1.58,4.62-1.06,1.26-2.63,2.22-4.71,2.87-.7.22-1.45.4-2.25.54-1.61.3-3.45.45-5.5.45-1.28,0-2.65-.05-4.1-.15-.3-.02-.6-.04-.91-.07-1.8-.14-3.6-.38-5.4-.73-1.8-.34-3.54-.72-5.22-1.15-1.69-.43-3.25-.9-4.67-1.42l-2.06,7.54c1.43.52,3.04,1,4.84,1.46s3.7.84,5.7,1.15c2,.32,3.95.56,5.86.73.63.06,1.25.1,1.86.13,1.26.09,2.48.13,3.67.13,2.1,0,4.08-.11,5.93-.34,2.67-.31,5.08-.86,7.22-1.63,3.62-1.31,6.38-3.21,8.26-5.7,1.89-2.48,2.83-5.52,2.83-9.12,0-2.28-.34-4.29-1.03-6.04Z"/>
        <path class="cls-1" d="M636.26,88.57h-17.38c-.18,0-.32-.28-.32-.63v-3.36c0-.33.13-.6.3-.63l17.4-4.11v8.73Z"/>
      </g>
    </g>
  </g>
</svg>